<svg xmlns="http://www.w3.org/2000/svg" viewBox="0 0 155.56 54.04"><defs><style>.a{fill:#fff;}.b{fill:#7f7f80;stroke:#7f7f80;stroke-miterlimit:10;stroke-width:0.3px;}</style></defs><title>1Asset 2</title><path class="a" d="M5.78,35.51A5.77,5.77,0,1,1,5.78,24a5.57,5.57,0,0,1,4.37,2L8.38,27.58a3.09,3.09,0,0,0-2.53-1.46c-1.79,0-3.16,1.52-3.16,3.63a3.31,3.31,0,0,0,3.16,3.59A3,3,0,0,0,8.38,31.9l1.77,1.59A5.57,5.57,0,0,1,5.78,35.51Z"/><path class="a" d="M37.35,35.4V29c0-2.06-.81-3-2.51-3s-2.51.9-2.51,3V35.4H29.68V17.92h2.65V25.6A4.47,4.47,0,0,1,36,24c2.42,0,3.94,1.32,3.94,4.5l0,6.93Z"/><path class="a" d="M69.57,29.75A5.84,5.84,0,1,1,63.74,24,5.65,5.65,0,0,1,69.57,29.75Zm-9,0c0,2.24,1.3,3.59,3.14,3.59s3.14-1.35,3.14-3.59-1.32-3.63-3.14-3.63S60.6,27.49,60.6,29.75Z"/><path class="a" d="M95.66,26.12c-2,0-2.49,1.73-2.49,4.19V35.4H90.49V24.08h2.68V26A2.68,2.68,0,0,1,96,24a2.23,2.23,0,0,1,1.8.78l-.5,2.09A2.13,2.13,0,0,0,95.66,26.12Z"/><path class="a" d="M120.18,24.08v6.37c0,2.06.8,3,2.51,3s2.51-.92,2.51-3V24.08h2.64V35.4H125.2V33.87a4.5,4.5,0,0,1-3.7,1.64c-2.44,0-4-1.34-4-4.53l0-6.9Z"/><path class="a" d="M152.55,29.15c1.46.6,3,1.45,3,3.29s-1.64,3.07-4,3.07a6.83,6.83,0,0,1-4.81-1.81l1.65-1.62a4.63,4.63,0,0,0,2.9,1.26c1,0,1.59-.34,1.59-1,0-.88-.94-1.24-2.54-1.93-2.15-.92-3.13-1.82-3.13-3.32,0-2.06,2-3.09,4.12-3.09a5.72,5.72,0,0,1,4.21,1.7l-1.61,1.57a3.62,3.62,0,0,0-2.49-1.12c-.8,0-1.54.36-1.54,1S150.54,28.27,152.55,29.15Z"/><rect class="b" x="136.05" y="14.77" width="2.79" height="24.46" rx="1.26"/><rect class="b" x="106.52" y="0.15" width="2.79" height="49.69" rx="1.26"/><rect class="b" x="76.85" y="9.67" width="2.79" height="34.67" rx="1.26"/><rect class="b" x="47.32" y="4.13" width="2.79" height="49.76" rx="1.26"/><rect class="b" x="17.79" y="12.36" width="2.79" height="29.29" rx="1.26"/><rect class="a" x="136.05" y="14.77" width="2.79" height="24.46" rx="1.26"/><rect class="a" x="106.52" y="0.15" width="2.79" height="49.69" rx="1.26"/><rect class="a" x="76.85" y="9.67" width="2.79" height="34.67" rx="1.26"/><rect class="a" x="47.32" y="4.13" width="2.79" height="49.76" rx="1.26"/><rect class="a" x="17.79" y="12.36" width="2.79" height="29.29" rx="1.26"/></svg>