<svg xmlns="http://www.w3.org/2000/svg" xmlns:xlink="http://www.w3.org/1999/xlink" viewBox="0 0 169.85 44.74"><defs><style>.a{fill:#7f7f80;stroke:#7f7f80;stroke-miterlimit:10;stroke-width:0.3px;}.b{fill:url(#a);}.c{fill:url(#b);}.d{fill:url(#c);}.e{fill:url(#d);}.f{fill:url(#e);}</style><linearGradient id="a" x1="20.1" y1="16.78" x2="20.1" y2="39.24" gradientUnits="userSpaceOnUse"><stop offset="0" stop-color="#0098dc"/><stop offset="1" stop-color="#652d90"/></linearGradient><linearGradient id="b" x1="52.66" y1="3.57" x2="52.66" y2="44.74" xlink:href="#a"/><linearGradient id="c" x1="85.21" y1="11.06" x2="85.21" y2="44.74" xlink:href="#a"/><linearGradient id="d" x1="117.76" y1="0" x2="117.76" y2="41.17" xlink:href="#a"/><linearGradient id="e" x1="150.31" y1="13.5" x2="150.31" y2="39.7" xlink:href="#a"/></defs><title>1Asset 3</title><path class="a" d="M.15,28.93v0a4.08,4.08,0,0,1,4.15-4,4.32,4.32,0,0,1,3,1.12.56.56,0,0,1-.4,1,.64.64,0,0,1-.39-.14,3.17,3.17,0,0,0-2.21-.93,2.92,2.92,0,0,0-2.9,3v0a3,3,0,0,0,3,3A3.32,3.32,0,0,0,6.62,31,.47.47,0,0,1,7,30.83a.55.55,0,0,1,.55.52.51.51,0,0,1-.16.37A4.16,4.16,0,0,1,4.3,33,4.07,4.07,0,0,1,.15,28.93Z"/><path class="a" d="M32.84,22.39a.61.61,0,0,1,1.21,0v4a3.09,3.09,0,0,1,2.77-1.52A2.89,2.89,0,0,1,39.92,28v4.32a.58.58,0,0,1-.59.58.6.6,0,0,1-.62-.58v-4A2.11,2.11,0,0,0,36.47,26a2.33,2.33,0,0,0-2.42,2.43v4a.58.58,0,0,1-.6.58.59.59,0,0,1-.61-.58Z"/><path class="a" d="M64.71,28.93v0a4.22,4.22,0,0,1,8.44,0v0A4.12,4.12,0,0,1,68.91,33,4.06,4.06,0,0,1,64.71,28.93Zm7.21,0v0a3,3,0,0,0-3-3,2.92,2.92,0,0,0-3,3v0a3,3,0,0,0,3,3A2.93,2.93,0,0,0,71.92,28.93Z"/><path class="a" d="M99.26,25.52a.59.59,0,0,1,.59-.58.58.58,0,0,1,.61.58V27a3.35,3.35,0,0,1,2.79-2.07.56.56,0,0,1,.59.58.57.57,0,0,1-.53.59,3.2,3.2,0,0,0-2.85,3.54v2.65a.6.6,0,0,1-1.2,0Z"/><path class="a" d="M137.53,32.27a.59.59,0,0,1-.59.59.58.58,0,0,1-.59-.59v-.84A3.12,3.12,0,0,1,133.57,33a2.9,2.9,0,0,1-3.1-3.11V25.52a.57.57,0,0,1,.59-.58.6.6,0,0,1,.62.58v4a2.11,2.11,0,0,0,2.24,2.35,2.35,2.35,0,0,0,2.43-2.44V25.52a.56.56,0,0,1,.59-.58.58.58,0,0,1,.59.58Z"/><path class="a" d="M163.71,32A.5.5,0,0,1,164,31a.51.51,0,0,1,.3.09,4.69,4.69,0,0,0,2.57.83c1,0,1.68-.49,1.68-1.24v0c0-.78-1-1.08-2-1.36-1.27-.35-2.68-.77-2.68-2.2v0c0-1.33,1.15-2.22,2.75-2.22a5.79,5.79,0,0,1,2.59.66.56.56,0,0,1,.3.48.52.52,0,0,1-.54.5.59.59,0,0,1-.26-.06,4.51,4.51,0,0,0-2.12-.61c-1,0-1.57.48-1.57,1.13v0c0,.74,1,1,2.09,1.34,1.25.36,2.6.83,2.6,2.23v0c0,1.47-1.27,2.32-2.88,2.32A5.71,5.71,0,0,1,163.71,32Z"/><path class="b" d="M21,38.43a.83.83,0,0,1-.85.81h0a.83.83,0,0,1-.84-.81V17.59a.83.83,0,0,1,.84-.81h0a.84.84,0,0,1,.85.81Z"/><path class="c" d="M53.5,43.93a.82.82,0,0,1-.84.81h0a.83.83,0,0,1-.85-.81V4.39a.84.84,0,0,1,.85-.82h0a.83.83,0,0,1,.84.82Z"/><path class="d" d="M86.06,43.93a.83.83,0,0,1-.85.81h0a.82.82,0,0,1-.84-.81V11.87a.82.82,0,0,1,.84-.81h0a.83.83,0,0,1,.85.81Z"/><path class="e" d="M118.61,40.36a.83.83,0,0,1-.85.81h0a.83.83,0,0,1-.84-.81V.81a.83.83,0,0,1,.84-.81h0a.83.83,0,0,1,.85.81Z"/><path class="f" d="M151.16,38.89a.83.83,0,0,1-.84.81h0a.83.83,0,0,1-.85-.81V14.31a.83.83,0,0,1,.85-.81h0a.83.83,0,0,1,.84.81Z"/></svg>