<?xml version="1.0" encoding="utf-8"?>
<!-- Generator: Adobe Illustrator 18.1.1, SVG Export Plug-In . SVG Version: 6.00 Build 0)  -->
<svg version="1.1" id="Layer_1" xmlns="http://www.w3.org/2000/svg" xmlns:xlink="http://www.w3.org/1999/xlink" x="0px" y="0px"
	 viewBox="0 0 138 41.8" enable-background="new 0 0 138 41.8" xml:space="preserve">
<g>
	<path fill="#409BD8" d="M31.2,35.5c-0.3-0.1-1-0.2-1.6-0.2c-1,0-1.4,0.2-1.4,0.8c0,0.5,0.2,0.7,1.4,0.8c1.4,0.2,2.1,0.7,2.1,1.9
		c0,1.5-0.9,1.9-2.7,1.9c-0.7,0-1.4-0.1-1.9-0.3l0.3-1c0.4,0.1,1,0.2,1.6,0.2c1,0,1.4-0.2,1.4-0.8c0-0.5-0.2-0.8-1.4-0.9
		c-1.4-0.1-2-0.6-2-1.7c0-1.5,0.9-2,2.6-2c0.7,0,1.4,0.1,1.9,0.3L31.2,35.5z"/>
	<path fill="#409BD8" d="M39.5,38.7c0,1.6-1,2-2.6,2s-2.6-0.4-2.6-2v-4.3h1.2v4.1c0,0.8,0.4,1.1,1.4,1.1c1,0,1.4-0.2,1.4-1.1v-4.1
		h1.2L39.5,38.7z"/>
	<path fill="#409BD8" d="M42.6,40.6v-6.2h3.2c1.3,0,1.7,0.9,1.7,2.1c0,1.1-0.5,2-1.7,2h-2.1v2H42.6z M45.5,37.6
		c0.5,0,0.8-0.4,0.8-1.1c0-0.8-0.3-1.1-0.7-1.1h-1.7v2.2H45.5z"/>
	<path fill="#409BD8" d="M50.1,40.6v-6.2h3.2c1.3,0,1.7,0.9,1.7,2.1c0,1.1-0.5,2-1.7,2h-2.1v2H50.1z M53,37.6c0.5,0,0.8-0.4,0.8-1.1
		c0-0.8-0.3-1.1-0.7-1.1h-1.7v2.2H53z"/>
	<path fill="#409BD8" d="M63.2,37.4c0,2.6-1,3.3-2.9,3.3c-2,0-2.9-0.7-2.9-3.3c0-2.5,1-3.2,2.9-3.2C62.3,34.3,63.2,34.9,63.2,37.4z
		 M62,37.5c0-1.9-0.3-2.1-1.7-2.1s-1.7,0.3-1.7,2.1c0,1.9,0.3,2.2,1.7,2.2S62,39.3,62,37.5z"/>
	<path fill="#409BD8" d="M71.5,40.6H70c-1-1.7-1.5-2.4-1.9-2.4h-0.8v2.4h-1.2v-6.2h3.2c1.3,0,1.7,0.8,1.7,1.8c0,0.9-0.4,1.6-1.6,1.7
		C69.8,38.1,70.4,38.8,71.5,40.6z M67.3,37.3H69c0.5,0,0.7-0.3,0.7-0.9c0-0.6-0.3-1-0.7-1h-1.8V37.3z"/>
	<path fill="#409BD8" d="M75.3,40.6v-5.2h-2.1v-1h5.3v1h-2.1v5.2H75.3z"/>
	<path fill="#409BD8" d="M88.8,35.5c-0.3-0.1-1-0.2-1.6-0.2c-1,0-1.4,0.2-1.4,0.8c0,0.5,0.2,0.7,1.4,0.8c1.4,0.2,2.1,0.7,2.1,1.9
		c0,1.5-0.9,1.9-2.7,1.9c-0.7,0-1.4-0.1-1.9-0.3l0.3-1c0.4,0.1,1,0.2,1.6,0.2c1,0,1.4-0.2,1.4-0.8c0-0.5-0.2-0.8-1.4-0.9
		c-1.4-0.1-2-0.6-2-1.7c0-1.5,0.9-2,2.6-2c0.7,0,1.4,0.1,1.9,0.3L88.8,35.5z"/>
	<path fill="#409BD8" d="M96.4,34.4v1h-3.3v1.4h2.4v1h-2.4v1.7h3.3v1H92v-6.2H96.4z"/>
	<path fill="#409BD8" d="M104.4,40.6H103c-1-1.7-1.5-2.4-1.9-2.4h-0.8v2.4H99v-6.2h3.2c1.3,0,1.7,0.8,1.7,1.8c0,0.9-0.4,1.6-1.6,1.7
		C102.8,38.1,103.3,38.8,104.4,40.6z M100.2,37.3h1.7c0.5,0,0.7-0.3,0.7-0.9c0-0.6-0.3-1-0.7-1h-1.8V37.3z"/>
	<path fill="#409BD8" d="M107.2,34.4c0.6,1.3,1.3,3.4,1.8,5c0.6-1.5,1.3-3.5,1.7-5h1.2c-0.6,1.8-1.5,4.3-2.3,6.2h-1.5
		c-0.6-2-1.5-4.5-2.2-6.2H107.2z"/>
	<path fill="#409BD8" d="M115.4,34.4v6.2h-1.2v-6.2H115.4z"/>
	<path fill="#409BD8" d="M121.1,34.3c0.6,0,1.3,0.1,1.8,0.2l-0.3,1c-0.3-0.1-0.9-0.2-1.3-0.2c-1.3,0-1.9,0.2-1.9,2.1
		c0,1.9,0.5,2.2,1.9,2.2c0.4,0,1-0.1,1.3-0.2l0.3,1c-0.5,0.1-1.2,0.2-1.8,0.2c-2,0-2.9-0.8-2.9-3.3
		C118.2,34.9,119.1,34.3,121.1,34.3z"/>
	<path fill="#409BD8" d="M129.8,34.4v1h-3.3v1.4h2.4v1h-2.4v1.7h3.3v1h-4.5v-6.2H129.8z"/>
	<path fill="#409BD8" d="M136.3,35.5c-0.3-0.1-1-0.2-1.6-0.2c-1,0-1.4,0.2-1.4,0.8c0,0.5,0.2,0.7,1.4,0.8c1.4,0.2,2.1,0.7,2.1,1.9
		c0,1.5-0.9,1.9-2.7,1.9c-0.7,0-1.4-0.1-1.9-0.3l0.3-1c0.4,0.1,1,0.2,1.6,0.2c1,0,1.4-0.2,1.4-0.8c0-0.5-0.2-0.8-1.4-0.9
		c-1.4-0.1-2-0.6-2-1.7c0-1.5,0.9-2,2.6-2c0.7,0,1.4,0.1,1.9,0.3L136.3,35.5z"/>
</g>
<path fill="#5D2F8D" d="M59,25.2V14.9c0-2.1-1.5-2.9-3.5-2.9H51v13.2c0,0.9-0.7,2-2.6,2c-1.7,0-2.6-1-2.6-2V9.7c0-1,0.6-2.6,2.7-2.6
	h7.2c5,0,8.2,2.7,8.2,7.8v10.3c0,0.9-0.7,2-2.6,2C59.7,27.2,59,26.2,59,25.2z"/>
<path fill="#5D2F8D" d="M74.4,27c-4.9,0-8.2-2.5-8.2-7.8V15c0-5.2,3.3-7.9,8-7.9h5.5c1,0,2.1,0.9,2.1,2.5c0,1.6-1.1,2.5-2.1,2.5
	h-5.2c-2.3,0-3.2,1.2-3.2,3.2V19c0,1.8,0.8,3.1,3.2,3.1H80c0.9,0,2.1,0.9,2.1,2.5c0,1.5-1.1,2.4-2.1,2.4H74.4z"/>
<path fill="#5D2F8D" d="M91.3,27c-4.4,0-7.9-2.5-7.9-7.8V15c0-5.2,3.3-7.9,8-7.9h2.2c4.7,0,8,2.7,8,7.9v4.2c0,5.2-3.5,7.8-7.9,7.8
	H91.3z M91.7,11.7c-2.3,0-3.2,1.2-3.2,3.2v4.4c0,1.8,0.9,3,3.2,3h1.7c2.3,0,3.2-1.2,3.2-3v-4.4c0-2-0.9-3.2-3.2-3.2L91.7,11.7z"/>
<path fill="#5D2F8D" d="M111.4,7.1c3.6,0,6.8,2.7,6.8,5c0,0.9-0.6,1.6-1.2,2c-1.4,0.9-2.7,0.4-3.5-0.9c-0.4-0.6-1.5-1.3-2.6-1.3
	h-2.1v13.3c0,0.9-0.8,2-2.6,2c-1.6,0-2.6-0.9-2.6-2V9.7c0-1,0.6-2.6,2.7-2.6H111.4z"/>
<path fill="#5D2F8D" d="M1.1,7.9C1.1,4.1,3.3,1,7.8,1h3.7c4.5,0,6.8,2.8,6.8,7v2.3c0,4.1-2.3,6.9-6.8,6.9H7.8c-4.5,0-6.7-3-6.7-6.8
	V7.9z M14.3,8.3c0-2-1-2.8-2.8-2.8H7.7c-1.6,0-2.6,0.7-2.6,2.7v1.8c0,2,1.1,2.7,2.6,2.7h3.8c1.7,0,2.8-0.8,2.8-2.8V8.3z"/>
<path fill="#5D2F8D" d="M43.6,24.6c0,1.6-0.9,2.6-2,2.6H28.5c-0.9,0-2-0.8-2-2.6c0-1.6,0.9-2.6,2-2.6h13.1
	C42.5,22.1,43.6,22.9,43.6,24.6z"/>
<path fill="#409BD8" d="M40.4,17.1c0,1.6-0.9,2.6-2,2.6h-9.9c-0.9,0-2-0.8-2-2.6c0-1.6,0.9-2.6,2-2.6h9.9
	C39.3,14.6,40.4,15.4,40.4,17.1z"/>
<path fill="#5D2F8D" d="M43.6,9.6c0,1.6-0.9,2.6-2,2.6H16.9c-0.9,0-2-0.8-2-2.6c0-1.6,0.9-2.6,2-2.6h24.8
	C42.5,7.1,43.6,7.9,43.6,9.6z"/>
<path fill="#5D2F8D" d="M128.5,7.1c4.5,0,8.1,2.9,8.1,8v1.7c0,0.9-0.6,2.6-2.7,2.6h-9.3v0.3c0,1.7,1.3,2.7,3.4,2.7h6.6
	c1,0,2.1,0.6,2.1,2.3c0,1.5-1.1,2.4-2.1,2.4h-7.2c-4.6,0-7.9-2.7-7.9-7.6v-4.3c0-5,3.5-8,8.1-8H128.5z M131.5,15.1
	c0-1.9-0.2-3.1-2.3-3.1h-1.5c-1.8,0-3.1,1.2-3.1,3.1v0.3h6.9V15.1z"/>
</svg>
