<svg xmlns="http://www.w3.org/2000/svg" xmlns:xlink="http://www.w3.org/1999/xlink" viewBox="0 0 1803 556"><defs><style>.a,.f{fill:none;}.b{clip-path:url(#a);}.c{opacity:0.15;fill:url(#b);}.d{fill:#fbfdff;}.e{fill:url(#c);}.f{stroke:#fff;stroke-miterlimit:10;stroke-width:0.5px;}</style><clipPath id="a"><rect class="a" width="1803" height="144.5"/></clipPath><linearGradient id="b" y1="286" x2="1803" y2="286" gradientUnits="userSpaceOnUse"><stop offset="0" stop-color="#fff"/><stop offset="0.05" stop-color="#ede6f3"/><stop offset="0.16" stop-color="#c0a5d5"/><stop offset="0.32" stop-color="#783fa6"/><stop offset="0.34" stop-color="#6f32a0"/><stop offset="0.39" stop-color="#6b37a3"/><stop offset="0.46" stop-color="#6145aa"/><stop offset="0.54" stop-color="#505db7"/><stop offset="0.62" stop-color="#387fc8"/><stop offset="0.7" stop-color="#19aadf"/><stop offset="0.75" stop-color="#00cdf1"/><stop offset="1" stop-color="#fff"/></linearGradient><linearGradient id="c" x1="1487.25" y1="855.75" x2="315.75" y2="-315.75" gradientUnits="userSpaceOnUse"><stop offset="0" stop-color="#6f32a0"/><stop offset="0.14" stop-color="#6b37a3"/><stop offset="0.3" stop-color="#6145aa"/><stop offset="0.48" stop-color="#505db7"/><stop offset="0.67" stop-color="#387fc8"/><stop offset="0.86" stop-color="#19aadf"/><stop offset="1" stop-color="#00cdf1"/></linearGradient></defs><title>2Asset 1</title><g class="b"><path class="c" d="M0,16H1803V556s-240.85-175-741.11-140c-139.23,9.75-289.5,74.5-496.5,57.5C107.2,435.85,0,556,0,556Z"/><path class="d" d="M0,4H1803V544s-240.85-175-741.11-140c-139.23,9.75-289.5,74.5-496.5,57.5C107.2,423.85,0,544,0,544Z"/><path class="e" d="M0,0H1803V540s-240.85-175-741.11-140c-139.23,9.75-289.5,74.5-496.5,57.5C107.2,419.85,0,540,0,540Z"/><line class="f" x1="3.5" y1="144" x2="1800.5" y2="144"/></g></svg>