<svg xmlns="http://www.w3.org/2000/svg" xmlns:xlink="http://www.w3.org/1999/xlink" viewBox="0 0 1803 556"><defs><style>.a,.b{fill:none;}.b{stroke:#fff;stroke-miterlimit:10;stroke-width:0.5px;}.c{fill:#fbfdff;}.d{fill:#0dc0ff;}.e{clip-path:url(#a);}.f{opacity:0.15;fill:url(#b);}.g{fill:url(#c);}</style><clipPath id="a"><rect class="a" y="144.5" width="1803" height="411.5"/></clipPath><linearGradient id="b" y1="286" x2="1803" y2="286" gradientUnits="userSpaceOnUse"><stop offset="0" stop-color="#fff"/><stop offset="0.05" stop-color="#ede6f3"/><stop offset="0.16" stop-color="#c0a5d5"/><stop offset="0.32" stop-color="#783fa6"/><stop offset="0.34" stop-color="#6f32a0"/><stop offset="0.39" stop-color="#6b37a3"/><stop offset="0.46" stop-color="#6145aa"/><stop offset="0.54" stop-color="#505db7"/><stop offset="0.62" stop-color="#387fc8"/><stop offset="0.7" stop-color="#19aadf"/><stop offset="0.75" stop-color="#00cdf1"/><stop offset="1" stop-color="#fff"/></linearGradient><linearGradient id="c" x1="1487.25" y1="855.75" x2="315.75" y2="-315.75" gradientUnits="userSpaceOnUse"><stop offset="0" stop-color="#6f32a0"/><stop offset="0.14" stop-color="#6b37a3"/><stop offset="0.3" stop-color="#6145aa"/><stop offset="0.48" stop-color="#505db7"/><stop offset="0.67" stop-color="#387fc8"/><stop offset="0.86" stop-color="#19aadf"/><stop offset="1" stop-color="#00cdf1"/></linearGradient></defs><title>2Asset 2</title><line class="b" x1="3.5" y1="144" x2="1800.5" y2="144"/><circle class="c" cx="822.25" cy="443" r="10.25"/><path class="d" d="M822.25,440.75A2.25,2.25,0,1,1,820,443a2.25,2.25,0,0,1,2.25-2.25m0-3A5.25,5.25,0,1,0,827.5,443a5.25,5.25,0,0,0-5.25-5.25Z"/><circle class="c" cx="1588.5" cy="449" r="10.25"/><path class="d" d="M1588.51,446.75h0a2.25,2.25,0,0,1,2.16,1.67,2.23,2.23,0,0,1-.22,1.71,2.25,2.25,0,1,1-1.94-3.38m0-3a5.25,5.25,0,0,0-2.63,9.8,5.32,5.32,0,0,0,2.63.7,5.25,5.25,0,1,0,0-10.5Z"/><g class="e"><path class="f" d="M0,16H1803V556s-240.85-175-741.11-140c-139.23,9.75-289.5,74.5-496.5,57.5C107.2,435.85,0,556,0,556Z"/><path class="c" d="M0,4H1803V544s-240.85-175-741.11-140c-139.23,9.75-289.5,74.5-496.5,57.5C107.2,423.85,0,544,0,544Z"/><path class="g" d="M0,0H1803V540s-240.85-175-741.11-140c-139.23,9.75-289.5,74.5-496.5,57.5C107.2,419.85,0,540,0,540Z"/><circle class="c" cx="243.5" cy="459" r="10.25"/><path class="d" d="M243.5,456.75a2.25,2.25,0,1,1-2.25,2.25,2.25,2.25,0,0,1,2.25-2.25m0-3a5.25,5.25,0,1,0,5.25,5.25,5.25,5.25,0,0,0-5.25-5.25Z"/></g></svg>