<svg xmlns="http://www.w3.org/2000/svg" xmlns:xlink="http://www.w3.org/1999/xlink" viewBox="0 0 1803 540"><defs><style>.a{fill:#4f2e60;}.b{opacity:0.15;}.c{fill:url(#a);}.d{fill:url(#b);}.e{fill:url(#c);}.f{fill:url(#d);}.g{fill:url(#e);}.h{fill:url(#f);}.i{fill:url(#g);}.j{fill:url(#h);}.k{fill:url(#i);}.l{fill:url(#j);}.m{fill:url(#k);}.n{fill:url(#l);}.o{fill:url(#m);}.p{fill:url(#n);}.q{fill:url(#o);}.r{fill:url(#p);}.s{fill:url(#q);}.t{fill:url(#r);}.u{fill:url(#s);}.v{fill:url(#t);}.w{fill:url(#u);}.x{fill:url(#v);}.y{fill:url(#w);}.z{fill:url(#x);}.aa{fill:url(#y);}.ab{fill:url(#z);}.ac{fill:url(#aa);}.ad{fill:url(#ab);}.ae{fill:url(#ac);}.af{fill:url(#ad);}.ag{fill:url(#ae);}.ah{fill:url(#af);}.ai{fill:url(#ag);}.aj{fill:url(#ah);}.ak{fill:url(#ai);}.al{fill:url(#aj);}.am{fill:url(#ak);}.an{fill:url(#al);}.ao{fill:url(#am);}.ap{fill:url(#an);}.aq{fill:url(#ao);}.ar{fill:url(#ap);}.as{fill:url(#aq);}.at{fill:url(#ar);}.au{fill:url(#as);}.av{fill:url(#at);}.aw{fill:url(#au);}.ax{fill:url(#av);}.ay{fill:url(#aw);}.az{fill:url(#ax);}.ba{fill:url(#ay);}.bb{fill:url(#az);}.bc{fill:url(#ba);}.bd{fill:url(#bb);}.be{fill:url(#bc);}.bf{fill:url(#bd);}.bg{fill:url(#be);}.bh{fill:url(#bf);}.bi{fill:url(#bg);}.bj{fill:url(#bh);}.bk{fill:url(#bi);}.bl{fill:url(#bj);}.bm{fill:url(#bk);}.bn{fill:url(#bl);}.bo{fill:url(#bm);}.bp{fill:url(#bn);}.bq{fill:url(#bo);}.br{fill:url(#bp);}.bs{fill:url(#bq);}.bt{fill:url(#br);}.bu{fill:url(#bs);}.bv{fill:url(#bt);}.bw{fill:url(#bu);}.bx{fill:url(#bv);}.by{fill:url(#bw);}.bz{fill:url(#bx);}.ca{fill:url(#by);}.cb{fill:url(#bz);}.cc{fill:url(#ca);}.cd{fill:url(#cb);}.ce{fill:url(#cc);}.cf{fill:url(#cd);}.cg{fill:url(#ce);}.ch{fill:url(#cf);}.ci{fill:url(#cg);}.cj{fill:url(#ch);}.ck{fill:url(#ci);}.cl{fill:url(#cj);}.cm{fill:url(#ck);}.cn{fill:url(#cl);}.co{fill:url(#cm);}.cp{fill:url(#cn);}.cq{fill:url(#co);}.cr{fill:url(#cp);}.cs{fill:url(#cq);}.ct{fill:url(#cr);}.cu{fill:url(#cs);}.cv{fill:url(#ct);}.cw{fill:url(#cu);}.cx{fill:url(#cv);}.cy{fill:url(#cw);}.cz{fill:url(#cx);}.da{fill:url(#cy);}.db{fill:url(#cz);}.dc{fill:url(#da);}.dd{fill:url(#db);}.de{fill:url(#dc);}.df{fill:url(#dd);}.dg{fill:url(#de);}.dh{fill:url(#df);}.di{fill:url(#dg);}</style><linearGradient id="a" x1="2.15" y1="316.26" x2="2.15" y2="303.56" gradientUnits="userSpaceOnUse"><stop offset="0" stop-color="#fff"/><stop offset="0.19" stop-color="#d5cdd9"/><stop offset="0.48" stop-color="#9c8aa6"/><stop offset="0.72" stop-color="#725880"/><stop offset="0.9" stop-color="#593969"/><stop offset="1" stop-color="#4f2e60"/></linearGradient><linearGradient id="b" x1="12.92" y1="316.34" x2="12.92" y2="303.56" xlink:href="#a"/><linearGradient id="c" x1="23.68" y1="316.53" x2="23.68" y2="303.56" xlink:href="#a"/><linearGradient id="d" x1="34.45" y1="323.4" x2="34.45" y2="300.48" xlink:href="#a"/><linearGradient id="e" x1="45.21" y1="333.78" x2="45.21" y2="296.3" xlink:href="#a"/><linearGradient id="f" x1="55.98" y1="348.14" x2="55.98" y2="289.46" xlink:href="#a"/><linearGradient id="g" x1="66.74" y1="366.49" x2="66.74" y2="279.11" xlink:href="#a"/><linearGradient id="h" x1="77.51" y1="387.84" x2="77.51" y2="266.64" xlink:href="#a"/><linearGradient id="i" x1="88.27" y1="409.98" x2="88.27" y2="254.12" xlink:href="#a"/><linearGradient id="j" x1="99.04" y1="430.29" x2="99.04" y2="238.97" xlink:href="#a"/><linearGradient id="k" x1="109.81" y1="447.05" x2="109.81" y2="227.1" xlink:href="#a"/><linearGradient id="l" x1="120.57" y1="459.74" x2="120.57" y2="217.41" xlink:href="#a"/><linearGradient id="m" x1="131.34" y1="468.61" x2="131.34" y2="211.28" xlink:href="#a"/><linearGradient id="n" x1="142.1" y1="473.99" x2="142.1" y2="207.14" xlink:href="#a"/><linearGradient id="o" x1="152.87" y1="476.94" x2="152.87" y2="205.14" xlink:href="#a"/><linearGradient id="p" x1="163.63" y1="477.61" x2="163.63" y2="204.69" xlink:href="#a"/><linearGradient id="q" x1="174.4" y1="475.93" x2="174.4" y2="205.84" xlink:href="#a"/><linearGradient id="r" x1="185.16" y1="471.8" x2="185.16" y2="208.75" xlink:href="#a"/><linearGradient id="s" x1="195.93" y1="464.66" x2="195.93" y2="213.88" xlink:href="#a"/><linearGradient id="t" x1="206.7" y1="453.95" x2="206.7" y2="221.59" xlink:href="#a"/><linearGradient id="u" x1="217.46" y1="439.24" x2="217.46" y2="232.18" xlink:href="#a"/><linearGradient id="v" x1="228.23" y1="420.58" x2="228.23" y2="245.31" xlink:href="#a"/><linearGradient id="w" x1="238.99" y1="399.07" x2="238.99" y2="259.66" xlink:href="#a"/><linearGradient id="x" x1="249.76" y1="376.99" x2="249.76" y2="273.22" xlink:href="#a"/><linearGradient id="y" x1="260.52" y1="356.93" x2="260.52" y2="284.47" xlink:href="#a"/><linearGradient id="z" x1="271.29" y1="341.18" x2="271.29" y2="292.85" xlink:href="#a"/><linearGradient id="aa" x1="282.05" y1="328.16" x2="282.05" y2="298.24" xlink:href="#a"/><linearGradient id="ab" x1="292.82" y1="319.59" x2="292.82" y2="301.81" xlink:href="#a"/><linearGradient id="ac" x1="303.58" y1="312.51" x2="303.58" y2="301.81" xlink:href="#a"/><linearGradient id="ad" x1="314.35" y1="303.33" x2="314.35" y2="294.8" xlink:href="#a"/><linearGradient id="ae" x1="325.12" y1="298.24" x2="325.12" y2="286.27" xlink:href="#a"/><linearGradient id="af" x1="335.88" y1="294.16" x2="335.88" y2="274.78" xlink:href="#a"/><linearGradient id="ag" x1="346.65" y1="294.76" x2="346.65" y2="260.98" xlink:href="#a"/><linearGradient id="ah" x1="357.41" y1="298.24" x2="357.41" y2="243.6" xlink:href="#a"/><linearGradient id="ai" x1="368.18" y1="299.06" x2="368.18" y2="234.66" xlink:href="#a"/><linearGradient id="aj" x1="378.94" y1="304.3" x2="378.94" y2="206.11" xlink:href="#a"/><linearGradient id="ak" x1="389.71" y1="312.94" x2="389.71" y2="173.53" xlink:href="#a"/><linearGradient id="al" x1="400.47" y1="317.72" x2="400.47" y2="147.37" xlink:href="#a"/><linearGradient id="am" x1="411.24" y1="326.33" x2="411.24" y2="125.12" xlink:href="#a"/><linearGradient id="an" x1="422.01" y1="341.55" x2="422.01" y2="109.02" xlink:href="#a"/><linearGradient id="ao" x1="432.77" y1="357.18" x2="432.77" y2="99.13" xlink:href="#a"/><linearGradient id="ap" x1="443.54" y1="380.45" x2="443.54" y2="92.35" xlink:href="#a"/><linearGradient id="aq" x1="454.3" y1="396.7" x2="454.3" y2="90.49" xlink:href="#a"/><linearGradient id="ar" x1="465.07" y1="411.98" x2="465.07" y2="91.56" xlink:href="#a"/><linearGradient id="as" x1="475.83" y1="422.57" x2="475.83" y2="96.53" xlink:href="#a"/><linearGradient id="at" x1="486.6" y1="428.97" x2="486.6" y2="105.76" xlink:href="#a"/><linearGradient id="au" x1="497.36" y1="431.98" x2="497.36" y2="120.39" xlink:href="#a"/><linearGradient id="av" x1="508.13" y1="432.28" x2="508.13" y2="141.06" xlink:href="#a"/><linearGradient id="aw" x1="518.9" y1="429.99" x2="518.9" y2="167.52" xlink:href="#a"/><linearGradient id="ax" x1="529.66" y1="424.49" x2="529.66" y2="197.98" xlink:href="#a"/><linearGradient id="ay" x1="540.43" y1="414.99" x2="540.43" y2="228.31" xlink:href="#a"/><linearGradient id="az" x1="551.19" y1="400.85" x2="551.19" y2="254.6" xlink:href="#a"/><linearGradient id="ba" x1="561.96" y1="382.4" x2="561.96" y2="274.78" xlink:href="#a"/><linearGradient id="bb" x1="572.72" y1="364.32" x2="572.72" y2="288.99" xlink:href="#a"/><linearGradient id="bc" x1="583.49" y1="351.72" x2="583.49" y2="297.93" xlink:href="#a"/><linearGradient id="bd" x1="1206.54" y1="308.67" x2="1206.54" y2="297.97" xlink:href="#a"/><linearGradient id="be" x1="1217.3" y1="299.48" x2="1217.3" y2="290.95" xlink:href="#a"/><linearGradient id="bf" x1="1228.07" y1="294.39" x2="1228.07" y2="282.43" xlink:href="#a"/><linearGradient id="bg" x1="1238.83" y1="290.31" x2="1238.83" y2="270.94" xlink:href="#a"/><linearGradient id="bh" x1="1249.6" y1="290.91" x2="1249.6" y2="257.14" xlink:href="#a"/><linearGradient id="bi" x1="1260.36" y1="294.39" x2="1260.36" y2="239.75" xlink:href="#a"/><linearGradient id="bj" x1="1271.13" y1="295.22" x2="1271.13" y2="230.82" xlink:href="#a"/><linearGradient id="bk" x1="1281.9" y1="300.46" x2="1281.9" y2="202.27" xlink:href="#a"/><linearGradient id="bl" x1="1292.66" y1="309.09" x2="1292.66" y2="169.69" xlink:href="#a"/><linearGradient id="bm" x1="1303.43" y1="313.87" x2="1303.43" y2="143.53" xlink:href="#a"/><linearGradient id="bn" x1="1314.19" y1="322.49" x2="1314.19" y2="121.28" xlink:href="#a"/><linearGradient id="bo" x1="1324.96" y1="337.71" x2="1324.96" y2="105.18" xlink:href="#a"/><linearGradient id="bp" x1="1335.72" y1="353.33" x2="1335.72" y2="95.29" xlink:href="#a"/><linearGradient id="bq" x1="1346.49" y1="376.61" x2="1346.49" y2="88.51" xlink:href="#a"/><linearGradient id="br" x1="1357.25" y1="392.85" x2="1357.25" y2="86.65" xlink:href="#a"/><linearGradient id="bs" x1="1368.02" y1="408.14" x2="1368.02" y2="87.71" xlink:href="#a"/><linearGradient id="bt" x1="1378.78" y1="418.73" x2="1378.78" y2="92.68" xlink:href="#a"/><linearGradient id="bu" x1="1389.55" y1="425.13" x2="1389.55" y2="101.92" xlink:href="#a"/><linearGradient id="bv" x1="1400.32" y1="428.13" x2="1400.32" y2="116.55" xlink:href="#a"/><linearGradient id="bw" x1="1411.08" y1="428.44" x2="1411.08" y2="137.22" xlink:href="#a"/><linearGradient id="bx" x1="1421.85" y1="426.15" x2="1421.85" y2="163.68" xlink:href="#a"/><linearGradient id="by" x1="1432.61" y1="420.65" x2="1432.61" y2="194.14" xlink:href="#a"/><linearGradient id="bz" x1="1443.38" y1="411.15" x2="1443.38" y2="224.46" xlink:href="#a"/><linearGradient id="ca" x1="1454.14" y1="397" x2="1454.14" y2="250.76" xlink:href="#a"/><linearGradient id="cb" x1="1464.91" y1="378.55" x2="1464.91" y2="270.94" xlink:href="#a"/><linearGradient id="cc" x1="1475.67" y1="360.48" x2="1475.67" y2="285.15" xlink:href="#a"/><linearGradient id="cd" x1="1486.44" y1="347.87" x2="1486.44" y2="294.09" xlink:href="#a"/><linearGradient id="ce" x1="1497.21" y1="337.71" x2="1497.21" y2="298.5" xlink:href="#a"/><linearGradient id="cf" x1="1507.97" y1="330.41" x2="1507.97" y2="306.17" xlink:href="#a"/><linearGradient id="cg" x1="1518.74" y1="326.73" x2="1518.74" y2="308.99" xlink:href="#a"/><linearGradient id="ch" x1="1529.5" y1="320.45" x2="1529.5" y2="308.99" xlink:href="#a"/><linearGradient id="ci" x1="1540.27" y1="319.88" x2="1540.27" y2="303.28" xlink:href="#a"/><linearGradient id="cj" x1="1551.03" y1="322.42" x2="1551.03" y2="295.56" xlink:href="#a"/><linearGradient id="ck" x1="1561.8" y1="326.73" x2="1561.8" y2="285.62" xlink:href="#a"/><linearGradient id="cl" x1="1572.56" y1="335.05" x2="1572.56" y2="271.81" xlink:href="#a"/><linearGradient id="cm" x1="1583.33" y1="344.72" x2="1583.33" y2="255.48" xlink:href="#a"/><linearGradient id="cn" x1="1594.1" y1="352.9" x2="1594.1" y2="235.28" xlink:href="#a"/><linearGradient id="co" x1="1604.86" y1="363.93" x2="1604.86" y2="220.24" xlink:href="#a"/><linearGradient id="cp" x1="1615.63" y1="378.64" x2="1615.63" y2="211.78" xlink:href="#a"/><linearGradient id="cq" x1="1626.39" y1="388.94" x2="1626.39" y2="206.02" xlink:href="#a"/><linearGradient id="cr" x1="1637.16" y1="395.72" x2="1637.16" y2="202.56" xlink:href="#a"/><linearGradient id="cs" x1="1647.92" y1="399.51" x2="1647.92" y2="201.02" xlink:href="#a"/><linearGradient id="ct" x1="1658.69" y1="400.92" x2="1658.69" y2="201.04" xlink:href="#a"/><linearGradient id="cu" x1="1669.45" y1="400.54" x2="1669.45" y2="202.64" xlink:href="#a"/><linearGradient id="cv" x1="1680.22" y1="397.65" x2="1680.22" y2="206.15" xlink:href="#a"/><linearGradient id="cw" x1="1690.99" y1="392.21" x2="1690.99" y2="211.99" xlink:href="#a"/><linearGradient id="cx" x1="1701.75" y1="383.45" x2="1701.75" y2="220.54" xlink:href="#a"/><linearGradient id="cy" x1="1712.52" y1="371.06" x2="1712.52" y2="231.96" xlink:href="#a"/><linearGradient id="cz" x1="1723.28" y1="355.88" x2="1723.28" y2="245.57" xlink:href="#a"/><linearGradient id="da" x1="1734.05" y1="340.38" x2="1734.05" y2="259.9" xlink:href="#a"/><linearGradient id="db" x1="1744.81" y1="327.25" x2="1744.81" y2="272.95" xlink:href="#a"/><linearGradient id="dc" x1="1755.58" y1="317.69" x2="1755.58" y2="283.36" xlink:href="#a"/><linearGradient id="dd" x1="1766.34" y1="311.58" x2="1766.34" y2="290.73" xlink:href="#a"/><linearGradient id="de" x1="1777.11" y1="308.32" x2="1777.11" y2="295.88" xlink:href="#a"/><linearGradient id="df" x1="1787.87" y1="307.34" x2="1787.87" y2="298.68" xlink:href="#a"/><linearGradient id="dg" x1="1798.64" y1="307.34" x2="1798.64" y2="299.53" xlink:href="#a"/></defs><title>1Asset 10</title><path class="a" d="M1803,540H0V0S398.74,77.42,899,42.4C1477.06,1.93,1803,0,1803,0Z"/><g class="b"><path class="c" d="M.4,309.91a13.44,13.44,0,0,1,1.75-6.35,13.44,13.44,0,0,1,1.75,6.35,13.44,13.44,0,0,1-1.75,6.35A13.44,13.44,0,0,1,.4,309.91Z"/><path class="d" d="M11.16,310a13.54,13.54,0,0,1,1.76-6.39A13.6,13.6,0,0,1,14.67,310a13.65,13.65,0,0,1-1.75,6.39A13.59,13.59,0,0,1,11.16,310Z"/><path class="e" d="M21.93,310a13.93,13.93,0,0,1,1.75-6.48,12.83,12.83,0,0,1,0,13A13.94,13.94,0,0,1,21.93,310Z"/><path class="f" d="M32.69,311.94a39.25,39.25,0,0,1,1.76-11.46,39.45,39.45,0,0,1,1.75,11.46,39.45,39.45,0,0,1-1.75,11.46A39.25,39.25,0,0,1,32.69,311.94Z"/><path class="g" d="M43.46,315a102.27,102.27,0,0,1,1.75-18.74A101.71,101.71,0,0,1,47,315a101.71,101.71,0,0,1-1.76,18.74A102.27,102.27,0,0,1,43.46,315Z"/><path class="h" d="M54.22,318.8A246.58,246.58,0,0,1,56,289.46a248,248,0,0,1,1.75,29.34A247.76,247.76,0,0,1,56,348.14,246.37,246.37,0,0,1,54.22,318.8Z"/><path class="i" d="M65,322.8c0-24.13,1.75-43.69,1.75-43.69s1.76,19.56,1.76,43.69-1.76,43.69-1.76,43.69S65,346.93,65,322.8Z"/><path class="j" d="M75.75,327.24c0-33.47,1.76-60.6,1.76-60.6s1.75,27.13,1.75,60.6-1.75,60.6-1.75,60.6S75.75,360.71,75.75,327.24Z"/><path class="k" d="M86.52,332.05c0-43,1.75-77.93,1.75-77.93S90,289,90,332.05,88.27,410,88.27,410,86.52,375.09,86.52,332.05Z"/><path class="l" d="M97.29,334.63C97.29,281.8,99,239,99,239s1.75,42.83,1.75,95.66S99,430.29,99,430.29,97.29,387.46,97.29,334.63Z"/><path class="m" d="M108.05,337.08c0-60.74,1.76-110,1.76-110s1.75,49.24,1.75,110-1.75,110-1.75,110S108.05,397.81,108.05,337.08Z"/><path class="n" d="M118.82,338.57c0-66.91,1.75-121.16,1.75-121.16s1.76,54.25,1.76,121.16-1.76,121.17-1.76,121.17S118.82,405.49,118.82,338.57Z"/><path class="o" d="M129.58,340c0-71.06,1.76-128.67,1.76-128.67s1.75,57.61,1.75,128.67-1.75,128.66-1.75,128.66S129.58,411,129.58,340Z"/><path class="p" d="M140.35,340.56c0-73.68,1.75-133.42,1.75-133.42s1.76,59.74,1.76,133.42S142.1,474,142.1,474,140.35,414.25,140.35,340.56Z"/><path class="q" d="M151.11,341c0-75.06,1.76-135.9,1.76-135.9S154.62,266,154.62,341s-1.75,135.9-1.75,135.9S151.11,416.1,151.11,341Z"/><path class="r" d="M161.88,341.15c0-75.36,1.75-136.46,1.75-136.46s1.76,61.1,1.76,136.46-1.76,136.46-1.76,136.46S161.88,416.52,161.88,341.15Z"/><path class="s" d="M172.64,340.88c0-74.58,1.76-135,1.76-135s1.75,60.46,1.75,135-1.75,135.05-1.75,135.05S172.64,415.47,172.64,340.88Z"/><path class="t" d="M183.41,340.28c0-72.64,1.75-131.53,1.75-131.53s1.76,58.89,1.76,131.53-1.76,131.52-1.76,131.52S183.41,412.91,183.41,340.28Z"/><path class="u" d="M194.18,339.27c0-69.25,1.75-125.39,1.75-125.39s1.75,56.14,1.75,125.39-1.75,125.39-1.75,125.39S194.18,408.52,194.18,339.27Z"/><path class="v" d="M204.94,337.77c0-64.16,1.76-116.18,1.76-116.18s1.75,52,1.75,116.18S206.7,454,206.7,454,204.94,401.93,204.94,337.77Z"/><path class="w" d="M215.71,335.71c0-57.18,1.75-103.53,1.75-103.53s1.76,46.35,1.76,103.53-1.76,103.53-1.76,103.53S215.71,392.89,215.71,335.71Z"/><path class="x" d="M226.47,333c0-48.4,1.76-87.64,1.76-87.64S230,284.55,230,333s-1.75,87.63-1.75,87.63S226.47,381.35,226.47,333Z"/><path class="y" d="M237.24,329.37c0-38.5,1.75-69.71,1.75-69.71s1.76,31.21,1.76,69.71-1.76,69.7-1.76,69.7S237.24,367.86,237.24,329.37Z"/><path class="z" d="M248,325.11c0-28.66,1.76-51.89,1.76-51.89s1.75,23.23,1.75,51.89S249.76,377,249.76,377,248,353.76,248,325.11Z"/><path class="aa" d="M258.77,320.7c0-20,1.75-36.23,1.75-36.23s1.76,16.22,1.76,36.23-1.76,36.23-1.76,36.23S258.77,340.71,258.77,320.7Z"/><path class="ab" d="M269.53,317a167.82,167.82,0,0,1,1.76-24.16,167.72,167.72,0,0,1,0,48.33A167.88,167.88,0,0,1,269.53,317Z"/><path class="ac" d="M280.3,313.2a65.9,65.9,0,0,1,1.75-15,64.46,64.46,0,0,1,0,29.92A65.9,65.9,0,0,1,280.3,313.2Z"/><path class="ad" d="M291.06,310.7a24.39,24.39,0,0,1,1.76-8.89,23.46,23.46,0,0,1,0,17.78A24.39,24.39,0,0,1,291.06,310.7Z"/><path class="ae" d="M301.83,307.16a10.09,10.09,0,0,1,1.75-5.35,9,9,0,0,1,0,10.7A10.14,10.14,0,0,1,301.83,307.16Z"/><path class="af" d="M312.6,299.06a7.14,7.14,0,0,1,1.75-4.26,6.07,6.07,0,0,1,0,8.53A7.15,7.15,0,0,1,312.6,299.06Z"/><path class="ag" d="M323.36,292.26a12.13,12.13,0,0,1,1.76-6,11.11,11.11,0,0,1,0,12A12.12,12.12,0,0,1,323.36,292.26Z"/><path class="ah" d="M334.13,284.47a28.77,28.77,0,0,1,1.75-9.69,27.56,27.56,0,0,1,0,19.38A28.77,28.77,0,0,1,334.13,284.47Z"/><path class="ai" d="M344.89,277.87A83,83,0,0,1,346.65,261a82.38,82.38,0,0,1,0,33.78A83,83,0,0,1,344.89,277.87Z"/><path class="aj" d="M355.66,270.92a215.15,215.15,0,0,1,1.75-27.32,212.92,212.92,0,0,1,0,54.64A215.35,215.35,0,0,1,355.66,270.92Z"/><path class="ak" d="M366.42,266.86a296.58,296.58,0,0,1,1.76-32.2,297.11,297.11,0,0,1,0,64.4A296.35,296.35,0,0,1,366.42,266.86Z"/><path class="al" d="M377.19,255.21c0-27.12,1.75-49.1,1.75-49.1s1.76,22,1.76,49.1-1.76,49.09-1.76,49.09S377.19,282.32,377.19,255.21Z"/><path class="am" d="M388,243.24c0-38.5,1.76-69.71,1.76-69.71s1.75,31.21,1.75,69.71-1.75,69.7-1.75,69.7S388,281.73,388,243.24Z"/><path class="an" d="M398.72,232.54c0-47,1.75-85.17,1.75-85.17s1.76,38.13,1.76,85.17-1.76,85.18-1.76,85.18S398.72,279.58,398.72,232.54Z"/><path class="ao" d="M409.49,225.73c0-55.56,1.75-100.61,1.75-100.61s1.75,45,1.75,100.61-1.75,100.6-1.75,100.6S409.49,281.29,409.49,225.73Z"/><path class="ap" d="M420.25,225.29C420.25,161.08,422,109,422,109s1.75,52.06,1.75,116.27S422,341.55,422,341.55,420.25,289.5,420.25,225.29Z"/><path class="aq" d="M431,228.15c0-71.26,1.75-129,1.75-129s1.76,57.76,1.76,129-1.76,129-1.76,129S431,299.41,431,228.15Z"/><path class="ar" d="M441.78,236.4c0-79.56,1.76-144,1.76-144s1.75,64.49,1.75,144.05-1.75,144-1.75,144S441.78,316,441.78,236.4Z"/><path class="as" d="M452.55,243.59c0-84.55,1.75-153.1,1.75-153.1s1.76,68.55,1.76,153.1S454.3,396.7,454.3,396.7,452.55,328.15,452.55,243.59Z"/><path class="at" d="M463.31,251.77c0-88.48,1.76-160.21,1.76-160.21s1.75,71.73,1.75,160.21S465.07,412,465.07,412,463.31,340.25,463.31,251.77Z"/><path class="au" d="M474.08,259.55c0-90,1.75-163,1.75-163s1.76,73,1.76,163-1.76,163-1.76,163S474.08,349.58,474.08,259.55Z"/><path class="av" d="M484.84,267.37c0-89.26,1.76-161.61,1.76-161.61s1.75,72.35,1.75,161.61S486.6,429,486.6,429,484.84,356.62,484.84,267.37Z"/><path class="aw" d="M495.61,276.18c0-86,1.75-155.79,1.75-155.79s1.76,69.75,1.76,155.79S497.36,432,497.36,432,495.61,362.22,495.61,276.18Z"/><path class="ax" d="M506.38,286.67c0-80.42,1.75-145.61,1.75-145.61s1.75,65.19,1.75,145.61-1.75,145.61-1.75,145.61S506.38,367.09,506.38,286.67Z"/><path class="ay" d="M517.14,298.75c0-72.48,1.76-131.23,1.76-131.23s1.75,58.75,1.75,131.23S518.9,430,518.9,430,517.14,371.23,517.14,298.75Z"/><path class="az" d="M527.91,311.24c0-62.55,1.75-113.26,1.75-113.26s1.76,50.71,1.76,113.26-1.76,113.25-1.76,113.25S527.91,373.78,527.91,311.24Z"/><path class="ba" d="M538.67,321.65c0-51.55,1.76-93.34,1.76-93.34s1.75,41.79,1.75,93.34S540.43,415,540.43,415,538.67,373.2,538.67,321.65Z"/><path class="bb" d="M549.44,327.72c0-40.38,1.75-73.12,1.75-73.12S553,287.34,553,327.72s-1.76,73.13-1.76,73.13S549.44,368.11,549.44,327.72Z"/><path class="bc" d="M560.2,328.59c0-29.72,1.76-53.81,1.76-53.81s1.75,24.09,1.75,53.81S562,382.4,562,382.4,560.2,358.3,560.2,328.59Z"/><path class="bd" d="M571,326.66c0-20.81,1.75-37.67,1.75-37.67s1.76,16.86,1.76,37.67-1.76,37.66-1.76,37.66S571,347.46,571,326.66Z"/><path class="be" d="M581.73,324.83a207.44,207.44,0,0,1,1.76-26.9,207.54,207.54,0,0,1,0,53.79A207.38,207.38,0,0,1,581.73,324.83Z"/><path class="bf" d="M1204.78,303.32a10.06,10.06,0,0,1,1.76-5.35,9.05,9.05,0,0,1,0,10.7A10.1,10.1,0,0,1,1204.78,303.32Z"/><path class="bg" d="M1215.55,295.22a2.49,2.49,0,1,1,1.75,4.26A7.15,7.15,0,0,1,1215.55,295.22Z"/><path class="bh" d="M1226.31,288.41a12.12,12.12,0,0,1,1.76-6,11.09,11.09,0,0,1,0,12A12.12,12.12,0,0,1,1226.31,288.41Z"/><path class="bi" d="M1237.08,280.63a28.77,28.77,0,0,1,1.75-9.69,27.53,27.53,0,0,1,0,19.37A28.68,28.68,0,0,1,1237.08,280.63Z"/><path class="bj" d="M1247.84,274a83,83,0,0,1,1.76-16.89,82.33,82.33,0,0,1,0,33.77A82.92,82.92,0,0,1,1247.84,274Z"/><path class="bk" d="M1258.61,267.07a215.15,215.15,0,0,1,1.75-27.32,212.92,212.92,0,0,1,0,54.64A215.15,215.15,0,0,1,1258.61,267.07Z"/><path class="bl" d="M1269.38,263a298.26,298.26,0,0,1,1.75-32.2,297.11,297.11,0,0,1,0,64.4A298.26,298.26,0,0,1,1269.38,263Z"/><path class="bm" d="M1280.14,251.36c0-27.11,1.76-49.09,1.76-49.09s1.75,22,1.75,49.09-1.75,49.1-1.75,49.1S1280.14,278.48,1280.14,251.36Z"/><path class="bn" d="M1290.91,239.39c0-38.49,1.75-69.7,1.75-69.7s1.76,31.21,1.76,69.7-1.76,69.7-1.76,69.7S1290.91,277.89,1290.91,239.39Z"/><path class="bo" d="M1301.67,228.7c0-47,1.76-85.17,1.76-85.17s1.75,38.13,1.75,85.17-1.75,85.17-1.75,85.17S1301.67,275.74,1301.67,228.7Z"/><path class="bp" d="M1312.44,221.88c0-55.56,1.75-100.6,1.75-100.6s1.76,45,1.76,100.6-1.76,100.61-1.76,100.61S1312.44,277.45,1312.44,221.88Z"/><path class="bq" d="M1323.2,221.44c0-64.21,1.76-116.26,1.76-116.26s1.75,52,1.75,116.26S1325,337.71,1325,337.71,1323.2,285.66,1323.2,221.44Z"/><path class="br" d="M1334,224.31c0-71.26,1.75-129,1.75-129s1.76,57.76,1.76,129-1.76,129-1.76,129S1334,295.57,1334,224.31Z"/><path class="bs" d="M1344.73,232.56c0-79.56,1.76-144,1.76-144s1.75,64.49,1.75,144.05-1.75,144.05-1.75,144.05S1344.73,312.11,1344.73,232.56Z"/><path class="bt" d="M1355.5,239.75c0-84.55,1.75-153.1,1.75-153.1s1.76,68.55,1.76,153.1-1.76,153.1-1.76,153.1S1355.5,324.31,1355.5,239.75Z"/><path class="bu" d="M1366.26,247.93c0-88.49,1.76-160.22,1.76-160.22s1.75,71.73,1.75,160.22S1368,408.14,1368,408.14,1366.26,336.41,1366.26,247.93Z"/><path class="bv" d="M1377,255.7c0-90,1.75-163,1.75-163s1.76,73,1.76,163-1.76,163-1.76,163S1377,345.74,1377,255.7Z"/><path class="bw" d="M1387.8,263.52c0-89.25,1.75-161.6,1.75-161.6s1.76,72.35,1.76,161.6-1.76,161.61-1.76,161.61S1387.8,352.78,1387.8,263.52Z"/><path class="bx" d="M1398.56,272.34c0-86,1.76-155.79,1.76-155.79s1.75,69.75,1.75,155.79-1.75,155.79-1.75,155.79S1398.56,358.38,1398.56,272.34Z"/><path class="by" d="M1409.33,282.83c0-80.42,1.75-145.61,1.75-145.61s1.76,65.19,1.76,145.61-1.76,145.61-1.76,145.61S1409.33,363.25,1409.33,282.83Z"/><path class="bz" d="M1420.09,294.91c0-72.48,1.76-131.23,1.76-131.23s1.75,58.75,1.75,131.23-1.75,131.24-1.75,131.24S1420.09,367.39,1420.09,294.91Z"/><path class="ca" d="M1430.86,307.39c0-62.55,1.75-113.25,1.75-113.25s1.76,50.7,1.76,113.25-1.76,113.26-1.76,113.26S1430.86,369.94,1430.86,307.39Z"/><path class="cb" d="M1441.62,317.81c0-51.56,1.76-93.35,1.76-93.35s1.75,41.79,1.75,93.35-1.75,93.34-1.75,93.34S1441.62,369.36,1441.62,317.81Z"/><path class="cc" d="M1452.39,323.88c0-40.39,1.75-73.12,1.75-73.12s1.76,32.73,1.76,73.12-1.76,73.12-1.76,73.12S1452.39,364.26,1452.39,323.88Z"/><path class="cd" d="M1463.15,324.74c0-29.71,1.76-53.8,1.76-53.8s1.75,24.09,1.75,53.8-1.75,53.81-1.75,53.81S1463.15,354.46,1463.15,324.74Z"/><path class="ce" d="M1473.92,322.81c0-20.8,1.75-37.66,1.75-37.66s1.76,16.86,1.76,37.66-1.76,37.67-1.76,37.67S1473.92,343.61,1473.92,322.81Z"/><path class="cf" d="M1484.69,321a208.54,208.54,0,0,1,1.75-26.89,207.47,207.47,0,0,1,0,53.78A208.54,208.54,0,0,1,1484.69,321Z"/><path class="cg" d="M1495.45,318.1a111.15,111.15,0,0,1,1.76-19.6,110.69,110.69,0,0,1,0,39.21A111.19,111.19,0,0,1,1495.45,318.1Z"/><path class="ch" d="M1506.22,318.29a43.93,43.93,0,0,1,1.75-12.12,42.61,42.61,0,0,1,0,24.24A43.93,43.93,0,0,1,1506.22,318.29Z"/><path class="ci" d="M1517,317.86a24.29,24.29,0,0,1,1.76-8.87,23.35,23.35,0,0,1,0,17.74A24.29,24.29,0,0,1,1517,317.86Z"/><path class="cj" d="M1527.75,314.72a11.34,11.34,0,0,1,1.75-5.73,10.21,10.21,0,0,1,0,11.46A11.34,11.34,0,0,1,1527.75,314.72Z"/><path class="ck" d="M1538.51,311.58a21.54,21.54,0,0,1,1.76-8.3,20.56,20.56,0,0,1,0,16.6A21.48,21.48,0,0,1,1538.51,311.58Z"/><path class="cl" d="M1549.28,309a53.44,53.44,0,0,1,1.75-13.43,52.12,52.12,0,0,1,0,26.86A53.54,53.54,0,0,1,1549.28,309Z"/><path class="cm" d="M1560,306.17a121.91,121.91,0,0,1,1.76-20.55,121.59,121.59,0,0,1,0,41.11A122.11,122.11,0,0,1,1560,306.17Z"/><path class="cn" d="M1570.81,303.43a287.67,287.67,0,0,1,1.75-31.62,284.92,284.92,0,0,1,0,63.24A287.44,287.44,0,0,1,1570.81,303.43Z"/><path class="co" d="M1581.58,300.1c0-24.65,1.75-44.62,1.75-44.62s1.75,20,1.75,44.62-1.75,44.62-1.75,44.62S1581.58,324.74,1581.58,300.1Z"/><path class="cp" d="M1592.34,294.09c0-32.48,1.76-58.81,1.76-58.81s1.75,26.33,1.75,58.81-1.75,58.81-1.75,58.81S1592.34,326.57,1592.34,294.09Z"/><path class="cq" d="M1603.11,292.09c0-39.68,1.75-71.85,1.75-71.85s1.76,32.17,1.76,71.85-1.76,71.84-1.76,71.84S1603.11,331.77,1603.11,292.09Z"/><path class="cr" d="M1613.87,295.21c0-46.08,1.76-83.43,1.76-83.43s1.75,37.35,1.75,83.43-1.75,83.43-1.75,83.43S1613.87,341.28,1613.87,295.21Z"/><path class="cs" d="M1624.64,297.48c0-50.51,1.75-91.46,1.75-91.46s1.76,40.95,1.76,91.46-1.76,91.46-1.76,91.46S1624.64,348,1624.64,297.48Z"/><path class="ct" d="M1635.4,299.14c0-53.34,1.76-96.58,1.76-96.58s1.75,43.24,1.75,96.58-1.75,96.58-1.75,96.58S1635.4,352.48,1635.4,299.14Z"/><path class="cu" d="M1646.17,300.27c0-54.82,1.75-99.25,1.75-99.25s1.76,44.43,1.76,99.25-1.76,99.24-1.76,99.24S1646.17,355.08,1646.17,300.27Z"/><path class="cv" d="M1656.93,301c0-55.19,1.76-99.94,1.76-99.94s1.75,44.75,1.75,99.94-1.75,99.94-1.75,99.94S1656.93,356.18,1656.93,301Z"/><path class="cw" d="M1667.7,301.59c0-54.65,1.75-98.95,1.75-98.95s1.76,44.3,1.76,98.95-1.76,99-1.76,99S1667.7,356.24,1667.7,301.59Z"/><path class="cx" d="M1678.47,301.9c0-52.88,1.75-95.75,1.75-95.75S1682,249,1682,301.9s-1.75,95.75-1.75,95.75S1678.47,354.78,1678.47,301.9Z"/><path class="cy" d="M1689.23,302.1c0-49.76,1.76-90.11,1.76-90.11s1.75,40.35,1.75,90.11-1.75,90.11-1.75,90.11S1689.23,351.87,1689.23,302.1Z"/><path class="cz" d="M1700,302c0-45,1.75-81.45,1.75-81.45s1.76,36.47,1.76,81.45-1.76,81.46-1.76,81.46S1700,347,1700,302Z"/><path class="da" d="M1710.76,301.51c0-38.41,1.76-69.55,1.76-69.55s1.75,31.14,1.75,69.55-1.75,69.55-1.75,69.55S1710.76,339.92,1710.76,301.51Z"/><path class="db" d="M1721.53,300.73c0-30.46,1.75-55.16,1.75-55.16s1.76,24.7,1.76,55.16-1.76,55.15-1.76,55.15S1721.53,331.18,1721.53,300.73Z"/><path class="dc" d="M1732.29,300.14c0-22.23,1.76-40.24,1.76-40.24s1.75,18,1.75,40.24-1.75,40.24-1.75,40.24S1732.29,322.36,1732.29,300.14Z"/><path class="dd" d="M1743.06,300.1a212.43,212.43,0,0,1,1.75-27.15,210.29,210.29,0,0,1,0,54.3A212.63,212.63,0,0,1,1743.06,300.1Z"/><path class="de" d="M1753.82,300.53a85.73,85.73,0,0,1,1.76-17.17,85.06,85.06,0,0,1,0,34.33A85.56,85.56,0,0,1,1753.82,300.53Z"/><path class="df" d="M1764.59,301.15a33,33,0,0,1,1.75-10.42,31.76,31.76,0,0,1,0,20.85A33,33,0,0,1,1764.59,301.15Z"/><path class="dg" d="M1775.35,302.1a13,13,0,0,1,1.76-6.22,11.93,11.93,0,0,1,0,12.44A12.91,12.91,0,0,1,1775.35,302.1Z"/><path class="dh" d="M1786.12,303a2.52,2.52,0,1,1,1.75,4.33A7.31,7.31,0,0,1,1786.12,303Z"/><path class="di" d="M1796.89,303.43a2.35,2.35,0,1,1,1.75,3.91A6.31,6.31,0,0,1,1796.89,303.43Z"/></g></svg>