<svg xmlns="http://www.w3.org/2000/svg" viewBox="0 0 138 41.8"><path d="M31.2 35.5c-.3-.1-1-.2-1.6-.2-1 0-1.4.2-1.4.8 0 .5.2.7 1.4.8 1.4.2 2.1.7 2.1 1.9 0 1.5-.9 1.9-2.7 1.9-.7 0-1.4-.1-1.9-.3l.3-1c.4.1 1 .2 1.6.2 1 0 1.4-.2 1.4-.8 0-.5-.2-.8-1.4-.9-1.4-.1-2-.6-2-1.7 0-1.5.9-2 2.6-2 .7 0 1.4.1 1.9.3l-.3 1zm8.3 3.2c0 1.6-1 2-2.6 2s-2.6-.4-2.6-2v-4.3h1.2v4.1c0 .8.4 1.1 1.4 1.1 1 0 1.4-.2 1.4-1.1v-4.1h1.2v4.3zm3.1 1.9v-6.2h3.2c1.3 0 1.7.9 1.7 2.1 0 1.1-.5 2-1.7 2h-2.1v2h-1.1zm2.9-3c.5 0 .8-.4.8-1.1 0-.8-.3-1.1-.7-1.1h-1.7v2.2h1.6zm4.6 3v-6.2h3.2c1.3 0 1.7.9 1.7 2.1 0 1.1-.5 2-1.7 2h-2.1v2h-1.1zm2.9-3c.5 0 .8-.4.8-1.1 0-.8-.3-1.1-.7-1.1h-1.7v2.2H53zm10.2-.2c0 2.6-1 3.3-2.9 3.3-2 0-2.9-.7-2.9-3.3 0-2.5 1-3.2 2.9-3.2 2 .1 2.9.7 2.9 3.2zm-1.2.1c0-1.9-.3-2.1-1.7-2.1s-1.7.3-1.7 2.1c0 1.9.3 2.2 1.7 2.2s1.7-.4 1.7-2.2zm9.5 3.1H70c-1-1.7-1.5-2.4-1.9-2.4h-.8v2.4h-1.2v-6.2h3.2c1.3 0 1.7.8 1.7 1.8 0 .9-.4 1.6-1.6 1.7.4.2 1 .9 2.1 2.7zm-4.2-3.3H69c.5 0 .7-.3.7-.9 0-.6-.3-1-.7-1h-1.8v1.9zm8 3.3v-5.2h-2.1v-1h5.3v1h-2.1v5.2h-1.1zm13.5-5.1c-.3-.1-1-.2-1.6-.2-1 0-1.4.2-1.4.8 0 .5.2.7 1.4.8 1.4.2 2.1.7 2.1 1.9 0 1.5-.9 1.9-2.7 1.9-.7 0-1.4-.1-1.9-.3l.3-1c.4.1 1 .2 1.6.2 1 0 1.4-.2 1.4-.8 0-.5-.2-.8-1.4-.9-1.4-.1-2-.6-2-1.7 0-1.5.9-2 2.6-2 .7 0 1.4.1 1.9.3l-.3 1zm7.6-1.1v1h-3.3v1.4h2.4v1h-2.4v1.7h3.3v1H92v-6.2h4.4zm8 6.2H103c-1-1.7-1.5-2.4-1.9-2.4h-.8v2.4H99v-6.2h3.2c1.3 0 1.7.8 1.7 1.8 0 .9-.4 1.6-1.6 1.7.5.2 1 .9 2.1 2.7zm-4.2-3.3h1.7c.5 0 .7-.3.7-.9 0-.6-.3-1-.7-1h-1.8v1.9zm7-2.9c.6 1.3 1.3 3.4 1.8 5 .6-1.5 1.3-3.5 1.7-5h1.2c-.6 1.8-1.5 4.3-2.3 6.2h-1.5c-.6-2-1.5-4.5-2.2-6.2h1.3zm8.2 0v6.2h-1.2v-6.2h1.2zm5.7-.1c.6 0 1.3.1 1.8.2l-.3 1c-.3-.1-.9-.2-1.3-.2-1.3 0-1.9.2-1.9 2.1 0 1.9.5 2.2 1.9 2.2.4 0 1-.1 1.3-.2l.3 1c-.5.1-1.2.2-1.8.2-2 0-2.9-.8-2.9-3.3 0-2.4.9-3 2.9-3zm8.7.1v1h-3.3v1.4h2.4v1h-2.4v1.7h3.3v1h-4.5v-6.2h4.5zm6.5 1.1c-.3-.1-1-.2-1.6-.2-1 0-1.4.2-1.4.8 0 .5.2.7 1.4.8 1.4.2 2.1.7 2.1 1.9 0 1.5-.9 1.9-2.7 1.9-.7 0-1.4-.1-1.9-.3l.3-1c.4.1 1 .2 1.6.2 1 0 1.4-.2 1.4-.8 0-.5-.2-.8-1.4-.9-1.4-.1-2-.6-2-1.7 0-1.5.9-2 2.6-2 .7 0 1.4.1 1.9.3l-.3 1z" fill="#409BD8"/><path fill="#5D2F8D" d="M59 25.2V14.9c0-2.1-1.5-2.9-3.5-2.9H51v13.2c0 .9-.7 2-2.6 2-1.7 0-2.6-1-2.6-2V9.7c0-1 .6-2.6 2.7-2.6h7.2c5 0 8.2 2.7 8.2 7.8v10.3c0 .9-.7 2-2.6 2-1.6 0-2.3-1-2.3-2zM74.4 27c-4.9 0-8.2-2.5-8.2-7.8V15c0-5.2 3.3-7.9 8-7.9h5.5c1 0 2.1.9 2.1 2.5s-1.1 2.5-2.1 2.5h-5.2c-2.3 0-3.2 1.2-3.2 3.2V19c0 1.8.8 3.1 3.2 3.1H80c.9 0 2.1.9 2.1 2.5 0 1.5-1.1 2.4-2.1 2.4h-5.6zm16.9 0c-4.4 0-7.9-2.5-7.9-7.8V15c0-5.2 3.3-7.9 8-7.9h2.2c4.7 0 8 2.7 8 7.9v4.2c0 5.2-3.5 7.8-7.9 7.8h-2.4zm.4-15.3c-2.3 0-3.2 1.2-3.2 3.2v4.4c0 1.8.9 3 3.2 3h1.7c2.3 0 3.2-1.2 3.2-3v-4.4c0-2-.9-3.2-3.2-3.2h-1.7zm19.7-4.6c3.6 0 6.8 2.7 6.8 5 0 .9-.6 1.6-1.2 2-1.4.9-2.7.4-3.5-.9-.4-.6-1.5-1.3-2.6-1.3h-2.1v13.3c0 .9-.8 2-2.6 2-1.6 0-2.6-.9-2.6-2V9.7c0-1 .6-2.6 2.7-2.6h5.1zM1.1 7.9C1.1 4.1 3.3 1 7.8 1h3.7c4.5 0 6.8 2.8 6.8 7v2.3c0 4.1-2.3 6.9-6.8 6.9H7.8c-4.5 0-6.7-3-6.7-6.8V7.9zm13.2.4c0-2-1-2.8-2.8-2.8H7.7c-1.6 0-2.6.7-2.6 2.7V10c0 2 1.1 2.7 2.6 2.7h3.8c1.7 0 2.8-.8 2.8-2.8V8.3zm29.3 16.3c0 1.6-.9 2.6-2 2.6H28.5c-.9 0-2-.8-2-2.6 0-1.6.9-2.6 2-2.6h13.1c.9.1 2 .9 2 2.6z"/><path fill="#409BD8" d="M40.4 17.1c0 1.6-.9 2.6-2 2.6h-9.9c-.9 0-2-.8-2-2.6 0-1.6.9-2.6 2-2.6h9.9c.9.1 2 .9 2 2.6z"/><path fill="#5D2F8D" d="M43.6 9.6c0 1.6-.9 2.6-2 2.6H16.9c-.9 0-2-.8-2-2.6 0-1.6.9-2.6 2-2.6h24.8c.8.1 1.9.9 1.9 2.6zm84.9-2.5c4.5 0 8.1 2.9 8.1 8v1.7c0 .9-.6 2.6-2.7 2.6h-9.3v.3c0 1.7 1.3 2.7 3.4 2.7h6.6c1 0 2.1.6 2.1 2.3 0 1.5-1.1 2.4-2.1 2.4h-7.2c-4.6 0-7.9-2.7-7.9-7.6v-4.3c0-5 3.5-8 8.1-8h.9zm3 8c0-1.9-.2-3.1-2.3-3.1h-1.5c-1.8 0-3.1 1.2-3.1 3.1v.3h6.9v-.3z"/></svg>